/* XPM */
static char *trustedqsl[] = {
/* columns rows colors chars-per-pixel */
"32 32 239 2 ",
"   c #1E1E2E",
".  c #2A362A",
"X  c #323A2E",
"o  c #2E2A32",
"O  c #3A3636",
"+  c #3E3E3E",
"@  c #4A362E",
"#  c #5E422E",
"$  c #4A4A3E",
"%  c #564A3A",
"&  c #4A563A",
"*  c #6A4A3E",
"=  c #0A0E46",
"-  c #0A1646",
";  c #1A2A56",
":  c #32324A",
">  c #363A4E",
",  c #2A2E52",
"<  c #3E3656",
"1  c #4E3E4E",
"2  c #4A3252",
"3  c #3E4642",
"4  c #2A4E56",
"5  c #3A4E62",
"6  c #464A46",
"7  c #4A424E",
"8  c #5E4E4E",
"9  c #5E5A52",
"0  c #625646",
"q  c #6E6642",
"w  c #6A6246",
"e  c #62624E",
"r  c #6E6E4A",
"t  c #6A6A4E",
"y  c #7E6E46",
"u  c #7A7646",
"i  c #7A7E4A",
"p  c #7A6E56",
"a  c #4E5A66",
"s  c #6E7672",
"d  c #FE0202",
"f  c #FE0606",
"g  c #FE0A0A",
"h  c #FE0E0E",
"j  c #FE0E12",
"k  c #FE1212",
"l  c #FE1616",
"z  c #FE161A",
"x  c #FE1A1A",
"c  c #FE1E1E",
"v  c #E21E26",
"b  c #CA2632",
"n  c #FE2222",
"m  c #FE262A",
"M  c #FE2A2A",
"N  c #FE2E2E",
"B  c #F23A26",
"V  c #FE3232",
"C  c #FE3A3A",
"Z  c #FE3E3E",
"A  c #827A32",
"S  c #DE463E",
"D  c #FE4222",
"F  c #FA462A",
"G  c #FE562A",
"H  c #F65636",
"J  c #FE5232",
"K  c #FE563A",
"L  c #FE622E",
"P  c #FE623A",
"I  c #965E46",
"U  c #867A4A",
"Y  c #96724E",
"T  c #927E4E",
"R  c #DE564E",
"E  c #E64E4A",
"W  c #FA424E",
"Q  c #FE4E4A",
"!  c #FE4E4E",
"~  c #FE5252",
"^  c #FE5656",
"/  c #FE5A5A",
"(  c #FE5E5E",
")  c #DE6256",
"_  c #FE724E",
"`  c #FE7A56",
"'  c #D6666E",
"]  c #FE6262",
"[  c #FE6E6E",
"{  c #FE7676",
"}  c #FE7E7E",
"|  c #9A863E",
" . c #BE9632",
".. c #BE9E3E",
"X. c #B6AA3A",
"o. c #B6B23E",
"O. c #C69E3A",
"+. c #C2BA3E",
"@. c #EEAE3A",
"#. c #E6BE3A",
"$. c #F6EA3E",
"%. c #FEFE3E",
"&. c #82824A",
"*. c #928A42",
"=. c #928E4A",
"-. c #9A9642",
";. c #9A9646",
":. c #92924A",
">. c #AA8246",
",. c #AE9E42",
"<. c #B2964A",
"1. c #AA9656",
"2. c #A2A242",
"3. c #AEAA42",
"4. c #B6BE4A",
"5. c #A6A65E",
"6. c #B6AA5E",
"7. c #9E9A62",
"8. c #AE967E",
"9. c #C68E46",
"0. c #CE9A4A",
"q. c #E69246",
"w. c #C2A246",
"e. c #CAAA46",
"r. c #D6AE42",
"t. c #DEAE4A",
"y. c #CEBA42",
"u. c #C6A652",
"i. c #C6AE5A",
"p. c #EAB246",
"a. c #FE8666",
"s. c #FE8E6A",
"d. c #FE8E76",
"f. c #C6C24A",
"g. c #D6C642",
"h. c #DAC242",
"j. c #DECE46",
"k. c #DECA4A",
"l. c #D6D242",
"z. c #DEC25A",
"x. c #DED252",
"c. c #E6CA42",
"v. c #E6C64E",
"b. c #F2C246",
"n. c #E6D242",
"m. c #EADA46",
"M. c #E2D64A",
"N. c #FED646",
"B. c #F2DE46",
"V. c #FEDE46",
"C. c #FEC652",
"Z. c #EADE5A",
"A. c #EEE246",
"S. c #EAE64A",
"D. c #FEEE46",
"F. c #F2E24A",
"G. c #EAF64A",
"H. c #FEFE42",
"J. c #FEFE46",
"K. c #FEF24A",
"L. c #FEF64A",
"P. c #FEFE4E",
"I. c #EEEA52",
"U. c #FEE652",
"Y. c #F2EE56",
"T. c #FAEA52",
"R. c #FEFE52",
"E. c #FEFE5A",
"W. c #DAC66A",
"Q. c #E6DA7A",
"!. c #F6EE66",
"~. c #FEFE62",
"^. c #DE7E86",
"/. c #CE8E86",
"(. c #FE8686",
"). c #FE8A8A",
"_. c #EE9E9E",
"`. c #FE9292",
"'. c #FE9692",
"]. c #FE9696",
"[. c #FE9A9A",
"{. c #FE9E9E",
"}. c #C2B286",
"|. c #FAA286",
" X c #FEA2A2",
".X c #FEAAAA",
"XX c #FEAEAE",
"oX c #FEBEA2",
"OX c #FEB2B2",
"+X c #FEB6B6",
"@X c #FEBAB6",
"#X c #FEBEBE",
"$X c #F2EE82",
"%X c #F6FA8A",
"&X c #E2E29E",
"*X c #FEFE9A",
"=X c #C6D2AA",
"-X c #D2CEBA",
";X c #D6CABE",
":X c #FEC2BE",
">X c #EEDABE",
",X c #FEFEAE",
"<X c #EAEABA",
"1X c #FEFEB6",
"2X c #F6F2BE",
"3X c #C6BAC2",
"4X c #BEDADE",
"5X c #BADEEE",
"6X c #CACAC2",
"7X c #E2C6C2",
"8X c #FEC2C2",
"9X c #FEC6C6",
"0X c #F6CECA",
"qX c #FECACA",
"wX c #FECECA",
"eX c #FECECE",
"rX c #EEDED2",
"tX c #FED2D2",
"yX c #FED6D6",
"uX c #FEDAD6",
"iX c #FEDED6",
"pX c #FEDADA",
"aX c #FADEDA",
"sX c #FEDEDA",
"dX c #FADADE",
"fX c #FEDEDE",
"gX c #E6EAC2",
"hX c #EEF6CA",
"jX c #FEFEC6",
"kX c #E6E6DA",
"lX c #FAFEDE",
"zX c #FEE2E2",
"xX c #FEEAEA",
"cX c #FEEEEA",
"vX c #FEEEEE",
"bX c #FEF2F2",
"nX c #FEF6F6",
"mX c #FEFEFE",
"MX c None",
/* pixels */
"MXMXMXxX+X'.].} {.8XmXMXMXMXMXMXMXMXMXMXMXMXMXMXMXMXMXMXMXMXMXMX",
"MXMX:Xk f f n c h d Q mXMXMXMXMXMX: < MXMXMXMXMXMXMXMXMXMXMXMXMX",
"MXyXg z ~ xXmXmXqXc z z mXMXMX9 E.~.l.*.<.=.i A 3.B.L.+.MXMXMXMX",
"vXk z N mXMXMXMXMXxXh l { mXMXt E.E.R.o.3.e.E.~.j.*.w k.A.MXMXMX",
"XXh z qXMXMXMXMXMXMX{ x h mXMX< *.J.P.L.3.2.U h.- MXMXMXg.S.MXMX",
"`.Z g mXMXMXMXMXMXMXdXk k xXMX> K.r J.P.P.h.o.<.2.MXMXMXt J., MX",
").m f mXMXMXMXMXMXMXmXj l qXMX; V.A.i P.P.P.y.X.u.:.MXMX,.H.MXMX",
"} n d mXMXMXMXMXMXMXmXk l qXMX> k.m.m.u P.P.J.y.*.t.+.= M.f.MXMX",
" Xc h mXMXMXMXMXMXMXpXz h iXMXx.T...c.Z.u P.P.J.o.&.k.%.P.i MXMX",
"+Xh z wXMXMXMXMXMXMX).c g mX. E.D.K.O.c.M.q J.P.H.+.*. .H.7 MXMX",
"cXk z N mXMXMXMXMXmXh z / 5XA u.Y 5.!.w.n.h.q J.P.J.e.&.9.:.MXMX",
"MXzXV k / mXmXmXwXx k n xX& 1XjXjX7XhX$X6.M.M.w P.P.J.k.;.<.MXMX",
"MXMXqXk f d d d z c ( mX4 /.K D F D C oX%X<.M.n.r P.J.P.Z.u MXMX",
"MXMXMXmXfXOX^ ! f z [ { _.B P s.oX|.E d.,XY.-.m.x.u E.H.J.l.MXMX",
"MXMXMXMXMXmXmXmXmX.X( V ' G _ lXW.*X=X;XQ.r.P.;.L.I.i ~.~.$.MXMX",
"MXMXMXMXMXMXMXMXMXMXmXbX) L ` <XG.X O D.e.z.~.T 2 * >.y T 1 MXMX",
"MXMXMXMXMXMXMXMXMXMXMXMX0XG J @X3X8.}.y.I %   MXMXMXMX5 MXMXMXMX",
"MXMXMXMXMXMXMXMXMXMXMXMX6Xa.H b (.aXkX7.6 MXmXmXmXmXMXMXMXMXMXMX",
"MXMXMXMXMXMXMXMXMXMX0 0 w.gX^.B S v R rXMXMXzX/ ( mXMXMXMXMXMXMX",
"MXMXMXMXMXMXMXMXMX$ J.@.4.a &XrX].m c z nXMXeXk g nXMXMXMXMXMXMX",
"MXMXMXMXMXMXMX8 V.D.t.,.  #.1.MXMX.Xx N #XMX8Xk k mXMXMXMXMXMXMX",
"MXMXMXMXMXMXMXg.B.q.| 6 v.:.MXMXMXaXz ~  XmX@Xz k mXMXMXMXMXMXMX",
"MXMXMXMXMXMXp F.b.u X 2X>X4XMXMXMXqXc V XXMX9XC j mXMXMXMXMXMXMX",
"MXMXMXMXMXMX0 L.q o C.-XW k [.eX.Xj z M mXMXtXz k mXMXMXMXMXMXMX",
"MXMXMXMXMX7 F.r : N.u mXxXW d d d d ] mXMXMXsXl j mXMXMXMXMXMXMX",
"MXMXMX&.0.U.w O V.y MXMXMXMXmXmXmXmXMXMXMXMXyXz k mXMXMXMXMXMXMX",
"MXMX:.i.F.7 @ V.e MXMXMXMXMXMXMXMXMXMXMXMXMXuXx j mXMXMXMXMXMXMX",
"MXMX>.V.3 @ T.e MXMXMXMXMXMXMXMXMXMXMXMXMXMXuXk k mXMXMXMXMXMXMX",
"MXMXY + * D.r MXMXMXMXMXMXMXMXMXMXMXMXMXMXMXuXl k nXMXMXMXMXMXMX",
"MXMX8 # p.9 MXMXMXMXMXMXMXMXMXMXMXMXMXMXMXMXpXz N XXtXsXsXsXyXmX",
"MXMXMXe s MXMXMXMXMXMXMXMXMXMXMXMXMXMXMXMXMXtXg z j f f d d d mX",
"MXMXMXMXMXMXMXMXMXMXMXMXMXMXMXMXMXMXMXMXMXMXuX@X@X@XOXOXXXXX+XmX"
};
